<svg id="Capa_1" data-name="Capa 1" xmlns="http://www.w3.org/2000/svg" viewBox="0 0 753 287.33"><defs><style>.cls-1{fill:#272822;}</style></defs><title>INSIDEO SCIENCE</title><path class="cls-1" d="M567.08,498.34H537.47V354.64h29.61Z" transform="translate(-537 -352.67)"/><path class="cls-1" d="M711.37,498.34H681.76l-57.63-94.55v94.55H594.52V354.64h29.61l57.73,94.75V354.64h29.51Z" transform="translate(-537 -352.67)"/><path class="cls-1" d="M811.75,460.64q0-8.38-5.93-12.88t-21.31-9.47q-15.4-5-24.38-9.82-24.48-13.23-24.48-35.63a34.69,34.69,0,0,1,6.57-20.78q6.56-9.12,18.85-14.26a70.94,70.94,0,0,1,27.58-5.13q15.4,0,27.44,5.58A43.58,43.58,0,0,1,834.79,374a41.19,41.19,0,0,1,6.66,23.09H811.84q0-9.87-6.21-15.34t-17.47-5.48q-10.86,0-16.88,4.59a14.49,14.49,0,0,0-6,12.09q0,7,7.06,11.74t20.77,8.88q25.27,7.6,36.82,18.85t11.54,28q0,18.66-14.11,29.27t-38,10.61a73.49,73.49,0,0,1-30.2-6.07q-13.62-6.08-20.77-16.63a42.52,42.52,0,0,1-7.16-24.48h29.71q0,23.79,28.42,23.79,10.56,0,16.48-4.3A14,14,0,0,0,811.75,460.64Z" transform="translate(-537 -352.67)"/><path class="cls-1" d="M893,498.34H863.36V354.64H893Z" transform="translate(-537 -352.67)"/><path class="cls-1" d="M920.41,498.34V354.64h44.22q18.95,0,33.9,8.54a59.46,59.46,0,0,1,23.34,24.28q8.39,15.74,8.39,35.78v6.61q0,20-8.24,35.63a59.09,59.09,0,0,1-23.25,24.18,67.61,67.61,0,0,1-33.85,8.68ZM950,378.63v95.93h14.31q17.37,0,26.55-11.35t9.37-32.47v-7.6q0-21.92-9.08-33.21t-26.54-11.3Z" transform="translate(-537 -352.67)"/><path class="cls-1" d="M1138.23,436.07h-56.85v38.49h66.72v23.78h-96.33V354.64h96.13v24h-66.52v34.24h56.85Z" transform="translate(-537 -352.67)"/><path class="cls-1" d="M1283.51,429.75q0,21.22-7.5,37.21a56.48,56.48,0,0,1-21.47,24.67q-14,8.69-32,8.69-17.87,0-31.88-8.59a57,57,0,0,1-21.71-24.52q-7.71-15.94-7.8-36.67v-7.11q0-21.21,7.65-37.35t21.61-24.78q14-8.62,31.93-8.63t31.93,8.63q14,8.64,21.61,24.78t7.65,37.25Zm-30-6.51q0-22.61-8.1-34.35t-23.09-11.74q-14.91,0-23,11.59t-8.19,34v7q0,22,8.1,34.15T1222.52,476q14.89,0,22.89-11.7t8.1-34.1Z" transform="translate(-537 -352.67)"/><path class="cls-1" d="M537,638.87V556.42h22.82A33.73,33.73,0,0,1,577.15,561a32,32,0,0,1,12.18,12.71A39,39,0,0,1,593.86,592v10.7a39.41,39.41,0,0,1-4.34,18.58,32,32,0,0,1-12.09,12.91,33.53,33.53,0,0,1-17.32,4.7Zm3.06-79.4v76.34h19.76a30.31,30.31,0,0,0,15.77-4.22,29.47,29.47,0,0,0,11.13-11.78A35.68,35.68,0,0,0,590.8,603V592.43a35.57,35.57,0,0,0-3.94-16.76,29.45,29.45,0,0,0-11-11.81,30.35,30.35,0,0,0-15.6-4.39Z" transform="translate(-537 -352.67)"/><path class="cls-1" d="M655.13,614.23H614.75l-9.17,24.64h-3.34l30.86-82.45h3.74l30.86,82.45h-3.34Zm-39.24-3.05H654L635,560.1Z" transform="translate(-537 -352.67)"/><path class="cls-1" d="M728.53,559.47h-30v79.4h-3.06v-79.4h-30v-3.05h63.09Z" transform="translate(-537 -352.67)"/><path class="cls-1" d="M781.93,614.23H741.55l-9.17,24.64H729l30.87-82.45h3.74l30.86,82.45h-3.34Zm-39.25-3.05H780.8l-19-51.08Z" transform="translate(-537 -352.67)"/><path class="cls-1" d="M884.88,619.1a15.56,15.56,0,0,0-2.46-8.91,20.81,20.81,0,0,0-7.76-6.46q-5.29-2.81-16-5.75t-16-5.94a21.34,21.34,0,0,1-7.85-7,17.74,17.74,0,0,1-2.49-9.63q0-9,7.59-14.58t19.77-5.58a32,32,0,0,1,14.24,3.09,23.17,23.17,0,0,1,9.77,8.66,23.47,23.47,0,0,1,3.45,12.6H884a19.52,19.52,0,0,0-6.79-15.26q-6.79-6-17.61-6T842,563.18q-6.7,4.85-6.71,12.15a14.39,14.39,0,0,0,5.83,11.95q5.83,4.53,19.26,8t19.65,8.07A18.45,18.45,0,0,1,888,619a18.14,18.14,0,0,1-3.51,11,22.47,22.47,0,0,1-10,7.39A38.61,38.61,0,0,1,860,640a41.52,41.52,0,0,1-16.08-3,22.83,22.83,0,0,1-10.73-8.47,23.11,23.11,0,0,1-3.6-13h3.06q0,10.14,7.59,15.75t19.76,5.6q10.82,0,17.84-5T884.88,619.1Z" transform="translate(-537 -352.67)"/><path class="cls-1" d="M960.14,613.61q-1.18,12.75-8.77,19.57T930.75,640a27.68,27.68,0,0,1-15.54-4.44,29.24,29.24,0,0,1-10.51-12.63,45.29,45.29,0,0,1-3.79-18.72V591.47a46,46,0,0,1,3.68-18.83,29.08,29.08,0,0,1,10.5-12.83,27.66,27.66,0,0,1,15.66-4.53q12.91,0,20.56,6.8t8.83,19.48h-3q-1.3-11.38-7.93-17.3t-18.41-5.92a23.8,23.8,0,0,0-19.39,9.06q-7.4,9.06-7.39,24.3v12.11a42.64,42.64,0,0,0,3.28,17.25,26.68,26.68,0,0,0,9.43,11.69,24.35,24.35,0,0,0,14.07,4.19q11.84,0,18.49-5.83t7.85-17.5Z" transform="translate(-537 -352.67)"/><path class="cls-1" d="M984.55,638.87h-3.06V556.42h3.06Z" transform="translate(-537 -352.67)"/><path class="cls-1" d="M1053.87,598h-41.34v37.83h47.11v3.06h-50.17V556.42h50.17v3.05h-47.11v35.45h41.34Z" transform="translate(-537 -352.67)"/><path class="cls-1" d="M1134.91,638.87h-3.06l-53.23-77.25v77.25h-3.12V556.42h3.12l53.23,77.07V556.42h3.06Z" transform="translate(-537 -352.67)"/><path class="cls-1" d="M1213.62,613.61q-1.18,12.75-8.77,19.57T1184.23,640a27.68,27.68,0,0,1-15.54-4.44,29.24,29.24,0,0,1-10.51-12.63,45.29,45.29,0,0,1-3.79-18.72V591.47a46,46,0,0,1,3.68-18.83,29.08,29.08,0,0,1,10.5-12.83,27.66,27.66,0,0,1,15.66-4.53q12.91,0,20.56,6.8t8.83,19.48h-3q-1.3-11.38-7.93-17.3t-18.41-5.92a23.8,23.8,0,0,0-19.39,9.06q-7.39,9.06-7.4,24.3v12.11a42.63,42.63,0,0,0,3.29,17.25,26.68,26.68,0,0,0,9.43,11.69,24.32,24.32,0,0,0,14.07,4.19q11.83,0,18.49-5.83t7.85-17.5Z" transform="translate(-537 -352.67)"/><path class="cls-1" d="M1277.11,598h-41.34v37.83h47.11v3.06h-50.17V556.42h50.17v3.05h-47.11v35.45h41.34Z" transform="translate(-537 -352.67)"/><rect class="cls-1" y="174.5" width="753" height="2.85"/></svg>